<?xml version="1.0" encoding="utf-8"?>
<!-- Generator: Adobe Illustrator 16.0.0, SVG Export Plug-In . SVG Version: 6.00 Build 0)  -->
<!DOCTYPE svg PUBLIC "-//W3C//DTD SVG 1.1//EN" "http://www.w3.org/Graphics/SVG/1.1/DTD/svg11.dtd">
<svg version="1.1" id="Layer_1" xmlns="http://www.w3.org/2000/svg" xmlns:xlink="http://www.w3.org/1999/xlink" x="0px" y="0px"
	 width="129.994px" height="79.608px" viewBox="0 0 129.994 79.608" enable-background="new 0 0 129.994 79.608"
	 xml:space="preserve">
<rect x="111.071" y="2.905" fill="#59C4EC" width="9.847" height="9.452"/>
<polygon fill="#59C4EC" points="98.945,67.87 84.25,67.87 84.25,16.361 91.793,17.361 98.945,16.674 "/>
<rect x="21.984" y="68.988" fill="#59C4EC" width="9.847" height="9.451"/>
<g>
	<defs>
		<rect id="SVGID_1_" y="0" width="129.994" height="79.608"/>
	</defs>
	<clipPath id="SVGID_2_">
		<use xlink:href="#SVGID_1_"  overflow="visible"/>
	</clipPath>
	<path clip-path="url(#SVGID_2_)" fill="#59C4EC" d="M19.711,39.358l9.909,7.475l8.878-8.13l12.686,9.225l0.204,7.192h0.196v-34.5
		H1.167V54.85C6.281,50.806,19.711,39.358,19.711,39.358 M31.49,28.579c1.937,0,3.508,1.571,3.508,3.508
		c0,1.938-1.571,3.509-3.508,3.509s-3.508-1.571-3.508-3.509C27.982,30.149,29.553,28.579,31.49,28.579"/>
	<path clip-path="url(#SVGID_2_)" fill="#252C4B" d="M98.95,68.523H84.33c-0.36,0-0.651-0.291-0.651-0.649V15.945
		c0-0.098,0.023-0.195,0.066-0.284l7.31-15.045c0.11-0.224,0.336-0.366,0.585-0.366s0.477,0.142,0.585,0.366l7.311,15.045
		c0.043,0.089,0.064,0.186,0.064,0.284v51.929C99.6,68.232,99.309,68.523,98.95,68.523 M84.98,67.224h13.318V16.095L91.64,2.388
		L84.98,16.095V67.224z"/>
	<path clip-path="url(#SVGID_2_)" fill="#252C4B" d="M98.95,68.773H84.33c-0.497,0-0.901-0.404-0.901-0.899V15.945
		c0-0.137,0.03-0.269,0.091-0.393L90.83,0.507C90.983,0.193,91.293,0,91.64,0c0.348,0,0.657,0.194,0.811,0.506l7.31,15.046
		c0.061,0.124,0.09,0.256,0.09,0.393v51.929C99.85,68.369,99.446,68.773,98.95,68.773 M91.64,0.5c-0.153,0-0.292,0.087-0.359,0.226
		L83.97,15.77c-0.026,0.056-0.041,0.115-0.041,0.175v51.929c0,0.221,0.181,0.399,0.401,0.399h14.62c0.22,0,0.399-0.179,0.399-0.399
		V15.945c0-0.06-0.014-0.119-0.04-0.175L92,0.725C91.933,0.586,91.794,0.5,91.64,0.5 M98.549,67.474H84.73l0.024-51.489l6.885-14.17
		l6.909,14.28V67.474z M85.23,66.974h12.818V16.151L91.64,2.959L85.23,16.151V66.974z"/>
	<path clip-path="url(#SVGID_2_)" fill="#252C4B" d="M96.045,18.689c-0.168,0-0.335-0.065-0.461-0.191l-1.637-1.643l-1.639,1.643
		c-0.227,0.227-0.582,0.254-0.841,0.068l-2.483-1.794l-1.543,1.333c-0.212,0.183-0.516,0.209-0.758,0.066l-2.853-1.698
		c-0.307-0.184-0.408-0.583-0.225-0.891s0.582-0.41,0.891-0.226l2.448,1.458l1.579-1.362c0.228-0.198,0.561-0.211,0.805-0.034
		l2.45,1.77l1.708-1.713c0.122-0.122,0.287-0.191,0.46-0.191s0.339,0.069,0.461,0.191l1.706,1.713l2.455-1.771
		c0.29-0.211,0.699-0.143,0.908,0.147c0.21,0.292,0.144,0.698-0.148,0.908l-2.903,2.094C96.312,18.648,96.179,18.689,96.045,18.689"
		/>
	<path clip-path="url(#SVGID_2_)" fill="#252C4B" d="M91.849,18.94c-0.184,0.001-0.368-0.056-0.527-0.171l-2.323-1.678l-1.394,1.203
		c-0.293,0.254-0.713,0.291-1.048,0.093l-2.854-1.699c-0.425-0.255-0.564-0.808-0.312-1.234c0.256-0.425,0.809-0.564,1.233-0.313
		l2.294,1.366l1.442-1.244c0.315-0.274,0.774-0.293,1.115-0.048l2.276,1.645l1.558-1.562c0.34-0.339,0.936-0.338,1.274,0
		l1.557,1.562l2.282-1.645c0.192-0.14,0.429-0.198,0.667-0.159c0.238,0.038,0.447,0.167,0.589,0.362
		c0.141,0.196,0.197,0.433,0.158,0.671c-0.038,0.237-0.167,0.446-0.362,0.586l-2.903,2.094c-0.353,0.254-0.86,0.211-1.164-0.094
		l-1.46-1.466l-1.463,1.466C92.311,18.85,92.08,18.94,91.849,18.94 M88.972,16.454l2.643,1.91c0.159,0.115,0.377,0.098,0.517-0.042
		l1.817-1.821l1.813,1.821c0.134,0.134,0.36,0.153,0.518,0.042l2.904-2.095c0.087-0.063,0.144-0.155,0.161-0.26
		c0.018-0.106-0.008-0.212-0.07-0.299c-0.063-0.086-0.156-0.143-0.263-0.16c-0.104-0.016-0.21,0.008-0.295,0.07l-2.629,1.896
		l-1.856-1.865c-0.149-0.149-0.416-0.15-0.567,0.001l-1.857,1.864l-2.623-1.895c-0.151-0.11-0.355-0.102-0.496,0.021l-1.715,1.479
		l-2.604-1.55c-0.188-0.113-0.435-0.05-0.549,0.14c-0.112,0.188-0.05,0.434,0.139,0.547l2.853,1.698
		c0.148,0.088,0.337,0.071,0.466-0.04L88.972,16.454z"/>
	<path clip-path="url(#SVGID_2_)" fill="#252C4B" d="M95.751,68.523c-0.359,0-0.65-0.291-0.65-0.65V17.822
		c0-0.359,0.291-0.65,0.65-0.65c0.358,0,0.649,0.291,0.649,0.65v50.051C96.4,68.232,96.109,68.523,95.751,68.523"/>
	<path clip-path="url(#SVGID_2_)" fill="#252C4B" d="M95.751,68.773c-0.497,0-0.9-0.403-0.9-0.899V17.823c0-0.496,0.403-0.9,0.9-0.9
		c0.496,0,0.899,0.404,0.899,0.9v50.051C96.65,68.37,96.247,68.773,95.751,68.773 M95.751,17.423c-0.222,0-0.4,0.179-0.4,0.4v50.051
		c0,0.22,0.179,0.399,0.4,0.399c0.221,0,0.399-0.18,0.399-0.399V17.823C96.15,17.602,95.972,17.423,95.751,17.423"/>
	<path clip-path="url(#SVGID_2_)" fill="#252C4B" d="M92.136,68.523c-0.357,0-0.648-0.289-0.65-0.647l-0.224-50.3
		c-0.001-0.359,0.287-0.651,0.646-0.653h0.003c0.358,0,0.649,0.289,0.651,0.647l0.223,50.3c0.001,0.359-0.288,0.652-0.646,0.653
		H92.136z"/>
	<path clip-path="url(#SVGID_2_)" fill="#252C4B" d="M92.14,68.773h-0.004c-0.494,0-0.898-0.401-0.901-0.896l-0.223-50.3
		c-0.002-0.497,0.399-0.902,0.896-0.904c0.498,0,0.901,0.402,0.904,0.896l0.224,50.3C93.036,68.366,92.635,68.771,92.14,68.773
		 M91.911,17.174c-0.222,0.001-0.4,0.181-0.399,0.402l0.223,50.3c0.001,0.219,0.182,0.397,0.401,0.397h0.003
		c0.219-0.001,0.397-0.182,0.396-0.402l-0.224-50.299C92.311,17.353,92.132,17.174,91.911,17.174"/>
	<path clip-path="url(#SVGID_2_)" fill="#252C4B" d="M87.328,68.523c-0.358,0-0.649-0.291-0.649-0.65V16.986
		c0-0.359,0.291-0.65,0.649-0.65c0.359,0,0.65,0.291,0.65,0.65v50.887C87.979,68.232,87.688,68.523,87.328,68.523"/>
	<path clip-path="url(#SVGID_2_)" fill="#252C4B" d="M87.328,68.773c-0.496,0-0.899-0.403-0.899-0.899V16.987
		c0-0.496,0.403-0.9,0.899-0.9c0.497,0,0.9,0.404,0.9,0.9v50.887C88.229,68.37,87.825,68.773,87.328,68.773 M87.328,16.587
		c-0.221,0-0.399,0.179-0.399,0.4v50.887c0,0.22,0.179,0.399,0.399,0.399c0.222,0,0.4-0.18,0.4-0.399V16.987
		C87.729,16.766,87.55,16.587,87.328,16.587"/>
	<path clip-path="url(#SVGID_2_)" fill="#252C4B" d="M93.532,79.358h-3.783c-3.347,0-6.07-2.72-6.07-6.063v-5.422
		c0-0.358,0.291-0.649,0.651-0.649h14.62c0.358,0,0.649,0.291,0.649,0.649v5.422C99.6,76.639,96.877,79.358,93.532,79.358
		 M84.98,68.523v4.771c0,2.627,2.139,4.764,4.769,4.764h3.783c2.629,0,4.767-2.137,4.767-4.764v-4.771H84.98z"/>
	<path clip-path="url(#SVGID_2_)" fill="#252C4B" d="M93.532,79.608h-3.783c-3.485,0-6.32-2.832-6.32-6.313v-5.422
		c0-0.496,0.404-0.899,0.901-0.899h14.62c0.496,0,0.899,0.403,0.899,0.899v5.422C99.85,76.776,97.016,79.608,93.532,79.608
		 M84.33,67.474c-0.221,0-0.401,0.179-0.401,0.399v5.422c0,3.205,2.611,5.813,5.82,5.813h3.783c3.208,0,5.817-2.608,5.817-5.813
		v-5.422c0-0.221-0.18-0.399-0.399-0.399H84.33z M93.532,78.309h-3.783c-2.768,0-5.019-2.249-5.019-5.014v-5.021h13.818v5.021
		C98.549,76.06,96.298,78.309,93.532,78.309 M85.23,68.773v4.521c0,2.489,2.026,4.514,4.519,4.514h3.783
		c2.491,0,4.517-2.024,4.517-4.514v-4.521H85.23z"/>
	<path clip-path="url(#SVGID_2_)" fill="#252C4B" d="M31.642,13.407h-9.847c-0.358,0-0.649-0.291-0.649-0.65V2.905
		c0-0.359,0.291-0.65,0.649-0.65h9.847c0.359,0,0.65,0.291,0.65,0.65v9.852C32.292,13.116,32.001,13.407,31.642,13.407
		 M22.445,12.107h8.547V3.555h-8.547V12.107z"/>
	<path clip-path="url(#SVGID_2_)" fill="#252C4B" d="M31.642,13.657h-9.847c-0.496,0-0.899-0.404-0.899-0.9V2.905
		c0-0.496,0.403-0.9,0.899-0.9h9.847c0.496,0,0.9,0.404,0.9,0.9v9.852C32.542,13.253,32.138,13.657,31.642,13.657 M21.795,2.505
		c-0.22,0-0.399,0.18-0.399,0.4v9.852c0,0.221,0.179,0.4,0.399,0.4h9.847c0.221,0,0.4-0.179,0.4-0.4V2.905c0-0.22-0.179-0.4-0.4-0.4
		H21.795z M31.242,12.357h-9.047V3.305h9.047V12.357z M22.695,11.857h8.047V3.805h-8.047V11.857z"/>
	<path clip-path="url(#SVGID_2_)" fill="#252C4B" d="M121.319,79.289h-9.848c-0.358,0-0.649-0.291-0.649-0.649v-9.853
		c0-0.358,0.291-0.649,0.649-0.649h9.848c0.358,0,0.649,0.291,0.649,0.649v9.853C121.969,78.998,121.678,79.289,121.319,79.289
		 M112.123,77.989h8.546v-8.552h-8.546V77.989z"/>
	<path clip-path="url(#SVGID_2_)" fill="#252C4B" d="M121.319,79.539h-9.848c-0.496,0-0.899-0.403-0.899-0.899v-9.853
		c0-0.496,0.403-0.899,0.899-0.899h9.848c0.496,0,0.899,0.403,0.899,0.899v9.853C122.219,79.136,121.815,79.539,121.319,79.539
		 M111.472,68.388c-0.221,0-0.399,0.179-0.399,0.399v9.853c0,0.22,0.179,0.399,0.399,0.399h9.848c0.221,0,0.399-0.18,0.399-0.399
		v-9.853c0-0.221-0.179-0.399-0.399-0.399H111.472z M120.918,78.239h-9.046v-9.052h9.046V78.239z M112.373,77.739h8.046v-8.052
		h-8.046V77.739z"/>
	<path clip-path="url(#SVGID_2_)" fill="#252C4B" d="M121.319,13.407h-9.848c-0.358,0-0.649-0.291-0.649-0.65V2.905
		c0-0.359,0.291-0.65,0.649-0.65h9.848c0.358,0,0.649,0.291,0.649,0.65v9.852C121.969,13.116,121.678,13.407,121.319,13.407
		 M112.123,12.107h8.546V3.555h-8.546V12.107z"/>
	<path clip-path="url(#SVGID_2_)" fill="#252C4B" d="M121.319,13.657h-9.848c-0.496,0-0.899-0.404-0.899-0.9V2.905
		c0-0.496,0.403-0.9,0.899-0.9h9.848c0.496,0,0.899,0.404,0.899,0.9v9.852C122.219,13.253,121.815,13.657,121.319,13.657
		 M111.472,2.505c-0.221,0-0.399,0.18-0.399,0.4v9.852c0,0.221,0.179,0.4,0.399,0.4h9.848c0.221,0,0.399-0.179,0.399-0.4V2.905
		c0-0.22-0.179-0.4-0.399-0.4H111.472z M120.918,12.357h-9.046V3.305h9.046V12.357z M112.373,11.857h8.046V3.805h-8.046V11.857z"/>
	<path clip-path="url(#SVGID_2_)" fill="#252C4B" d="M31.642,79.289h-9.847c-0.358,0-0.649-0.291-0.649-0.649v-9.853
		c0-0.358,0.291-0.649,0.649-0.649h9.847c0.359,0,0.65,0.291,0.65,0.649v9.853C32.292,78.998,32.001,79.289,31.642,79.289
		 M22.445,77.989h8.547v-8.552h-8.547V77.989z"/>
	<path clip-path="url(#SVGID_2_)" fill="#252C4B" d="M31.642,79.539h-9.847c-0.496,0-0.899-0.403-0.899-0.899v-9.853
		c0-0.496,0.403-0.899,0.899-0.899h9.847c0.496,0,0.9,0.403,0.9,0.899v9.853C32.542,79.136,32.138,79.539,31.642,79.539
		 M21.795,68.388c-0.22,0-0.399,0.179-0.399,0.399v9.853c0,0.22,0.179,0.399,0.399,0.399h9.847c0.221,0,0.4-0.18,0.4-0.399v-9.853
		c0-0.221-0.179-0.399-0.4-0.399H21.795z M31.242,78.239h-9.047v-9.052h9.047V78.239z M22.695,77.739h8.047v-8.052h-8.047V77.739z"
		/>
	<path clip-path="url(#SVGID_2_)" fill="#252C4B" d="M111.472,74.363H99.346c-0.358,0-0.649-0.291-0.649-0.649
		c0-0.359,0.291-0.65,0.649-0.65h12.126c0.36,0,0.651,0.291,0.651,0.65C112.123,74.072,111.832,74.363,111.472,74.363
		 M84.096,74.363H31.642c-0.359,0-0.65-0.291-0.65-0.649c0-0.359,0.291-0.65,0.65-0.65h52.454c0.36,0,0.651,0.291,0.651,0.65
		C84.747,74.072,84.456,74.363,84.096,74.363 M116.397,69.438c-0.358,0-0.649-0.291-0.649-0.65v-21.51
		c0-0.358,0.291-0.65,0.649-0.65c0.359,0,0.65,0.292,0.65,0.65v21.51C117.048,69.146,116.757,69.438,116.397,69.438 M26.721,69.438
		c-0.359,0-0.65-0.291-0.65-0.65v-6.51c0-0.358,0.291-0.65,0.65-0.65c0.359,0,0.65,0.292,0.65,0.65v6.51
		C27.371,69.146,27.08,69.438,26.721,69.438 M116.397,32.086c-0.358,0-0.649-0.291-0.649-0.649v-18.68
		c0-0.359,0.291-0.65,0.649-0.65c0.359,0,0.65,0.291,0.65,0.65v18.68C117.048,31.795,116.757,32.086,116.397,32.086 M26.721,21.086
		c-0.359,0-0.65-0.291-0.65-0.649v-7.68c0-0.359,0.291-0.65,0.65-0.65c0.359,0,0.65,0.291,0.65,0.65v7.68
		C27.371,20.795,27.08,21.086,26.721,21.086 M111.472,8.481H95.011c-0.358,0-0.649-0.291-0.649-0.65c0-0.359,0.291-0.65,0.649-0.65
		h16.461c0.36,0,0.651,0.291,0.651,0.65C112.123,8.19,111.832,8.481,111.472,8.481 M88.272,8.481h-56.63
		c-0.359,0-0.65-0.291-0.65-0.65c0-0.359,0.291-0.65,0.65-0.65h56.63c0.359,0,0.65,0.291,0.65,0.65
		C88.923,8.19,88.632,8.481,88.272,8.481"/>
	<path clip-path="url(#SVGID_2_)" fill="#252C4B" d="M111.472,74.613H99.346c-0.496,0-0.899-0.403-0.899-0.899s0.403-0.9,0.899-0.9
		h12.126c0.496,0,0.9,0.404,0.9,0.9S111.968,74.613,111.472,74.613 M99.346,73.313c-0.221,0-0.399,0.179-0.399,0.4
		c0,0.22,0.179,0.399,0.399,0.399h12.126c0.222,0,0.4-0.18,0.4-0.399c0-0.222-0.179-0.4-0.4-0.4H99.346z M84.096,74.613H31.642
		c-0.496,0-0.9-0.403-0.9-0.899s0.404-0.9,0.9-0.9h52.454c0.497,0,0.9,0.404,0.9,0.9S84.593,74.613,84.096,74.613 M31.642,73.313
		c-0.221,0-0.4,0.179-0.4,0.4c0,0.22,0.179,0.399,0.4,0.399h52.454c0.222,0,0.4-0.18,0.4-0.399c0-0.222-0.179-0.4-0.4-0.4H31.642z
		 M116.398,69.688c-0.496,0-0.901-0.404-0.901-0.9v-21.51c0-0.496,0.405-0.899,0.901-0.899s0.899,0.403,0.899,0.899v21.51
		C117.298,69.283,116.895,69.688,116.398,69.688 M116.398,46.878c-0.222,0-0.401,0.179-0.401,0.399v21.51
		c0,0.222,0.18,0.4,0.401,0.4c0.221,0,0.399-0.179,0.399-0.4v-21.51C116.798,47.057,116.619,46.878,116.398,46.878 M26.721,69.688
		c-0.496,0-0.9-0.404-0.9-0.9v-6.51c0-0.496,0.404-0.899,0.9-0.899s0.9,0.403,0.9,0.899v6.51
		C27.621,69.283,27.217,69.688,26.721,69.688 M26.721,61.878c-0.221,0-0.4,0.179-0.4,0.399v6.51c0,0.222,0.179,0.4,0.4,0.4
		c0.221,0,0.4-0.179,0.4-0.4v-6.51C27.121,62.057,26.942,61.878,26.721,61.878 M116.398,32.336c-0.496,0-0.901-0.404-0.901-0.9
		V12.758c0-0.496,0.405-0.9,0.901-0.9s0.899,0.404,0.899,0.9v18.679C117.298,31.933,116.895,32.336,116.398,32.336 M116.398,12.357
		c-0.222,0-0.401,0.179-0.401,0.4v18.679c0,0.221,0.18,0.4,0.401,0.4c0.221,0,0.399-0.179,0.399-0.4V12.758
		C116.798,12.537,116.619,12.357,116.398,12.357 M26.721,21.336c-0.496,0-0.9-0.404-0.9-0.9v-7.679c0-0.496,0.404-0.9,0.9-0.9
		s0.9,0.404,0.9,0.9v7.679C27.621,20.933,27.217,21.336,26.721,21.336 M26.721,12.357c-0.221,0-0.4,0.179-0.4,0.4v7.679
		c0,0.221,0.179,0.4,0.4,0.4c0.221,0,0.4-0.179,0.4-0.4v-7.679C27.121,12.537,26.942,12.357,26.721,12.357 M111.472,8.731H95.011
		c-0.496,0-0.899-0.404-0.899-0.9s0.403-0.9,0.899-0.9h16.461c0.496,0,0.9,0.404,0.9,0.9S111.968,8.731,111.472,8.731 M95.011,7.432
		c-0.221,0-0.399,0.179-0.399,0.4s0.179,0.4,0.399,0.4h16.461c0.222,0,0.4-0.179,0.4-0.4s-0.179-0.4-0.4-0.4H95.011z M88.273,8.731
		H31.642c-0.496,0-0.9-0.404-0.9-0.9s0.404-0.9,0.9-0.9h56.631c0.496,0,0.899,0.404,0.899,0.9S88.77,8.731,88.273,8.731
		 M31.642,7.432c-0.221,0-0.4,0.179-0.4,0.4s0.179,0.4,0.4,0.4h56.631c0.221,0,0.399-0.179,0.399-0.4s-0.179-0.4-0.399-0.4H31.642z"
		/>
	<path clip-path="url(#SVGID_2_)" fill="#252C4B" d="M129.093,47.928H98.95c-0.36,0-0.651-0.291-0.651-0.65v-15.84
		c0-0.359,0.291-0.65,0.651-0.65h30.143c0.36,0,0.651,0.291,0.651,0.65v15.84C129.744,47.637,129.453,47.928,129.093,47.928
		 M99.6,46.628h28.844V32.087H99.6V46.628z M84.33,47.928H51.184c-0.359,0-0.65-0.291-0.65-0.65v-15.84
		c0-0.359,0.291-0.65,0.65-0.65H84.33c0.359,0,0.65,0.291,0.65,0.65v15.84C84.98,47.637,84.689,47.928,84.33,47.928 M51.833,46.628
		h31.846V32.087H51.833V46.628z"/>
	<path clip-path="url(#SVGID_2_)" fill="#252C4B" d="M129.093,48.178H98.95c-0.497,0-0.901-0.403-0.901-0.9v-15.84
		c0-0.496,0.404-0.9,0.901-0.9h30.143c0.496,0,0.901,0.404,0.901,0.9v15.84C129.994,47.774,129.589,48.178,129.093,48.178
		 M98.95,31.038c-0.222,0-0.401,0.179-0.401,0.4v15.84c0,0.221,0.18,0.4,0.401,0.4h30.143c0.222,0,0.401-0.18,0.401-0.4v-15.84
		c0-0.221-0.18-0.4-0.401-0.4H98.95z M84.33,48.178H51.184c-0.496,0-0.9-0.403-0.9-0.9v-15.84c0-0.496,0.404-0.9,0.9-0.9H84.33
		c0.496,0,0.9,0.404,0.9,0.9v15.84C85.23,47.774,84.826,48.178,84.33,48.178 M51.184,31.038c-0.221,0-0.4,0.179-0.4,0.4v15.84
		c0,0.221,0.179,0.4,0.4,0.4H84.33c0.22,0,0.4-0.18,0.4-0.4v-15.84c0-0.221-0.181-0.4-0.4-0.4H51.184z M128.693,46.878H99.35V31.837
		h29.344V46.878z M99.85,46.378h28.344V32.337H99.85V46.378z M83.929,46.878H51.583V31.837h32.346V46.878z M52.083,46.378h31.346
		V32.337H52.083V46.378z"/>
	<path clip-path="url(#SVGID_2_)" fill="#252C4B" d="M122.114,47.928c-0.359,0-0.65-0.291-0.65-0.65v-8.541
		c0-0.359,0.291-0.65,0.65-0.65c0.358,0,0.649,0.291,0.649,0.65v8.541C122.764,47.637,122.473,47.928,122.114,47.928"/>
	<path clip-path="url(#SVGID_2_)" fill="#252C4B" d="M122.114,48.178c-0.496,0-0.9-0.404-0.9-0.899v-8.542
		c0-0.496,0.404-0.9,0.9-0.9c0.495,0,0.899,0.404,0.899,0.9v8.542C123.014,47.773,122.609,48.178,122.114,48.178 M122.114,38.337
		c-0.222,0-0.4,0.179-0.4,0.4v8.542c0,0.221,0.179,0.399,0.4,0.399c0.221,0,0.399-0.179,0.399-0.399v-8.542
		C122.514,38.516,122.335,38.337,122.114,38.337"/>
	<path clip-path="url(#SVGID_2_)" fill="#252C4B" d="M115.936,47.928c-0.358,0-0.649-0.291-0.649-0.65v-5.243
		c0-0.359,0.291-0.65,0.649-0.65c0.359,0,0.65,0.291,0.65,0.65v5.243C116.586,47.637,116.295,47.928,115.936,47.928"/>
	<path clip-path="url(#SVGID_2_)" fill="#252C4B" d="M115.936,48.178c-0.495,0-0.899-0.404-0.899-0.9v-5.243
		c0-0.496,0.404-0.9,0.899-0.9c0.496,0,0.9,0.404,0.9,0.9v5.243C116.836,47.773,116.432,48.178,115.936,48.178 M115.936,41.634
		c-0.221,0-0.399,0.179-0.399,0.4v5.243c0,0.222,0.179,0.4,0.399,0.4c0.222,0,0.4-0.179,0.4-0.4v-5.243
		C116.336,41.813,116.157,41.634,115.936,41.634"/>
	<path clip-path="url(#SVGID_2_)" fill="#252C4B" d="M109.764,47.928c-0.359,0-0.65-0.291-0.65-0.65v-8.541
		c0-0.359,0.291-0.65,0.65-0.65c0.358,0,0.649,0.291,0.649,0.65v8.541C110.413,47.637,110.122,47.928,109.764,47.928"/>
	<path clip-path="url(#SVGID_2_)" fill="#252C4B" d="M109.764,48.178c-0.497,0-0.9-0.404-0.9-0.899v-8.542
		c0-0.496,0.403-0.9,0.9-0.9c0.496,0,0.899,0.404,0.899,0.9v8.542C110.663,47.773,110.26,48.178,109.764,48.178 M109.764,38.337
		c-0.222,0-0.4,0.179-0.4,0.4v8.542c0,0.221,0.179,0.399,0.4,0.399c0.221,0,0.399-0.179,0.399-0.399v-8.542
		C110.163,38.516,109.984,38.337,109.764,38.337"/>
	<path clip-path="url(#SVGID_2_)" fill="#252C4B" d="M103.586,47.928c-0.358,0-0.649-0.291-0.649-0.65v-5.243
		c0-0.359,0.291-0.65,0.649-0.65c0.359,0,0.65,0.291,0.65,0.65v5.243C104.236,47.637,103.945,47.928,103.586,47.928"/>
	<path clip-path="url(#SVGID_2_)" fill="#252C4B" d="M103.586,48.178c-0.496,0-0.899-0.404-0.899-0.9v-5.243
		c0-0.496,0.403-0.9,0.899-0.9c0.497,0,0.9,0.404,0.9,0.9v5.243C104.486,47.773,104.083,48.178,103.586,48.178 M103.586,41.634
		c-0.221,0-0.399,0.179-0.399,0.4v5.243c0,0.222,0.179,0.4,0.399,0.4c0.222,0,0.4-0.179,0.4-0.4v-5.243
		C103.986,41.813,103.808,41.634,103.586,41.634"/>
	<path clip-path="url(#SVGID_2_)" fill="#252C4B" d="M63.587,47.928c-0.359,0-0.65-0.291-0.65-0.65v-5.243
		c0-0.359,0.291-0.65,0.65-0.65s0.65,0.291,0.65,0.65v5.243C64.237,47.637,63.946,47.928,63.587,47.928"/>
	<path clip-path="url(#SVGID_2_)" fill="#252C4B" d="M63.587,48.178c-0.496,0-0.9-0.404-0.9-0.9v-5.243c0-0.496,0.404-0.9,0.9-0.9
		c0.497,0,0.9,0.404,0.9,0.9v5.243C64.487,47.773,64.084,48.178,63.587,48.178 M63.587,41.634c-0.221,0-0.4,0.179-0.4,0.4v5.243
		c0,0.222,0.179,0.4,0.4,0.4s0.4-0.179,0.4-0.4v-5.243C63.987,41.813,63.809,41.634,63.587,41.634"/>
	<path clip-path="url(#SVGID_2_)" fill="#252C4B" d="M57.416,47.928c-0.359,0-0.65-0.291-0.65-0.65v-8.541
		c0-0.359,0.291-0.65,0.65-0.65s0.65,0.291,0.65,0.65v8.541C58.065,47.637,57.774,47.928,57.416,47.928"/>
	<path clip-path="url(#SVGID_2_)" fill="#252C4B" d="M57.416,48.178c-0.496,0-0.9-0.404-0.9-0.899v-8.542c0-0.496,0.404-0.9,0.9-0.9
		s0.9,0.404,0.9,0.9v8.542C58.315,47.773,57.912,48.178,57.416,48.178 M57.416,38.337c-0.221,0-0.4,0.179-0.4,0.4v8.542
		c0,0.221,0.179,0.399,0.4,0.399s0.4-0.179,0.4-0.399v-8.542C57.815,38.516,57.637,38.337,57.416,38.337"/>
	<path clip-path="url(#SVGID_2_)" fill="#252C4B" d="M75.937,47.928c-0.358,0-0.649-0.291-0.649-0.65v-5.243
		c0-0.359,0.291-0.65,0.649-0.65c0.359,0,0.65,0.291,0.65,0.65v5.243C76.587,47.637,76.296,47.928,75.937,47.928"/>
	<path clip-path="url(#SVGID_2_)" fill="#252C4B" d="M75.937,48.178c-0.495,0-0.899-0.404-0.899-0.9v-5.243
		c0-0.496,0.404-0.9,0.899-0.9c0.497,0,0.9,0.404,0.9,0.9v5.243C76.837,47.773,76.434,48.178,75.937,48.178 M75.937,41.634
		c-0.221,0-0.399,0.179-0.399,0.4v5.243c0,0.222,0.179,0.4,0.399,0.4c0.222,0,0.4-0.179,0.4-0.4v-5.243
		C76.337,41.813,76.158,41.634,75.937,41.634"/>
	<path clip-path="url(#SVGID_2_)" fill="#252C4B" d="M69.765,47.928c-0.358,0-0.649-0.291-0.649-0.65v-8.541
		c0-0.359,0.291-0.65,0.649-0.65c0.359,0,0.65,0.291,0.65,0.65v8.541C70.415,47.637,70.124,47.928,69.765,47.928"/>
	<path clip-path="url(#SVGID_2_)" fill="#252C4B" d="M69.765,48.178c-0.495,0-0.899-0.404-0.899-0.899v-8.542
		c0-0.496,0.404-0.9,0.899-0.9c0.496,0,0.9,0.404,0.9,0.9v8.542C70.665,47.773,70.261,48.178,69.765,48.178 M69.765,38.337
		c-0.221,0-0.399,0.179-0.399,0.4v8.542c0,0.221,0.179,0.399,0.399,0.399c0.222,0,0.4-0.179,0.4-0.399v-8.542
		C70.165,38.516,69.986,38.337,69.765,38.337"/>
	<path clip-path="url(#SVGID_2_)" fill="#252C4B" d="M82.14,47.928c-0.358,0-0.649-0.291-0.649-0.65v-8.541
		c0-0.359,0.291-0.65,0.649-0.65c0.359,0,0.65,0.291,0.65,0.65v8.541C82.79,47.637,82.499,47.928,82.14,47.928"/>
	<path clip-path="url(#SVGID_2_)" fill="#252C4B" d="M82.14,48.178c-0.495,0-0.899-0.404-0.899-0.899v-8.542
		c0-0.496,0.404-0.9,0.899-0.9c0.496,0,0.9,0.404,0.9,0.9v8.542C83.04,47.773,82.636,48.178,82.14,48.178 M82.14,38.337
		c-0.221,0-0.399,0.179-0.399,0.4v8.542c0,0.221,0.179,0.399,0.399,0.399c0.222,0,0.4-0.179,0.4-0.399v-8.542
		C82.54,38.516,82.361,38.337,82.14,38.337"/>
	<path clip-path="url(#SVGID_2_)" fill="#252C4B" d="M51.309,62.966H0.834c-0.323,0-0.584-0.263-0.584-0.585V20.386
		c0-0.322,0.261-0.584,0.584-0.584h50.475c0.322,0,0.584,0.262,0.584,0.584v41.995C51.893,62.703,51.631,62.966,51.309,62.966
		 M1.418,61.797h49.307V20.971H1.418V61.797z"/>
	<path clip-path="url(#SVGID_2_)" fill="#252C4B" d="M51.309,63.216H0.834C0.374,63.216,0,62.841,0,62.381V20.386
		c0-0.46,0.374-0.834,0.834-0.834h50.475c0.46,0,0.834,0.374,0.834,0.834v41.995C52.143,62.841,51.769,63.216,51.309,63.216
		 M0.834,20.052c-0.184,0-0.334,0.15-0.334,0.334v41.995c0,0.185,0.15,0.335,0.334,0.335h50.475c0.184,0,0.334-0.15,0.334-0.335
		V20.386c0-0.184-0.15-0.334-0.334-0.334H0.834z M50.975,62.047H1.168V20.721h49.807V62.047z M1.668,61.547h48.807V21.221H1.668
		V61.547z"/>
	<path clip-path="url(#SVGID_2_)" fill="#252C4B" d="M51.308,48.447c-0.122,0-0.244-0.038-0.349-0.116l-11.921-8.886l-9.259,7.581
		c-0.25,0.205-0.618,0.167-0.822-0.081c-0.205-0.25-0.168-0.618,0.082-0.823l9.613-7.87c0.207-0.169,0.503-0.176,0.719-0.016
		l12.287,9.158c0.258,0.192,0.312,0.559,0.119,0.817C51.662,48.365,51.486,48.447,51.308,48.447"/>
	<path clip-path="url(#SVGID_2_)" fill="#252C4B" d="M51.308,48.697c-0.181,0-0.353-0.058-0.498-0.165l-11.764-8.77l-9.109,7.457
		c-0.354,0.292-0.882,0.239-1.174-0.116c-0.291-0.355-0.238-0.883,0.117-1.175l9.613-7.87c0.297-0.243,0.718-0.252,1.027-0.024
		l12.287,9.159c0.179,0.134,0.295,0.328,0.327,0.549c0.032,0.221-0.024,0.44-0.157,0.619C51.82,48.572,51.57,48.697,51.308,48.697
		 M39.031,39.128l12.078,9.003c0.142,0.106,0.36,0.075,0.467-0.068c0.054-0.071,0.076-0.159,0.063-0.248
		c-0.013-0.089-0.059-0.167-0.131-0.22l-12.287-9.159c-0.122-0.09-0.293-0.086-0.411,0.01l-9.613,7.87
		c-0.142,0.117-0.164,0.328-0.047,0.472c0.117,0.141,0.328,0.163,0.47,0.046L39.031,39.128z"/>
	<path clip-path="url(#SVGID_2_)" fill="#252C4B" d="M0.834,55.129c-0.168,0-0.335-0.073-0.451-0.212
		c-0.205-0.249-0.171-0.617,0.078-0.823l18.871-15.615c0.212-0.176,0.518-0.178,0.734-0.009l16.301,12.835
		c0.254,0.199,0.298,0.567,0.098,0.821c-0.2,0.253-0.566,0.297-0.82,0.097L19.714,39.68L1.207,54.995
		C1.098,55.085,0.965,55.129,0.834,55.129"/>
	<path clip-path="url(#SVGID_2_)" fill="#252C4B" d="M0.834,55.379c-0.249,0-0.484-0.11-0.643-0.303
		c-0.293-0.354-0.243-0.881,0.11-1.174l18.872-15.616c0.297-0.249,0.739-0.253,1.047-0.013l16.302,12.836
		c0.175,0.137,0.286,0.335,0.312,0.556c0.026,0.222-0.035,0.44-0.173,0.616c-0.285,0.36-0.81,0.423-1.171,0.138L19.719,40.001
		L1.366,55.188C1.217,55.312,1.028,55.379,0.834,55.379 M19.705,38.595c-0.076,0-0.151,0.025-0.212,0.076L0.621,54.286
		c-0.142,0.118-0.162,0.329-0.044,0.471c0.113,0.138,0.332,0.158,0.471,0.045L19.71,39.358L35.8,52.027
		c0.146,0.114,0.356,0.089,0.469-0.056c0.056-0.07,0.08-0.158,0.07-0.247c-0.011-0.089-0.055-0.168-0.125-0.223L19.913,38.666
		C19.852,38.619,19.778,38.595,19.705,38.595"/>
	<path clip-path="url(#SVGID_2_)" fill="#252C4B" d="M31.539,36.486c-2.416,0-4.382-1.963-4.382-4.378
		c0-2.414,1.966-4.378,4.382-4.378c2.414,0,4.377,1.964,4.377,4.378C35.916,34.523,33.953,36.486,31.539,36.486 M31.539,28.899
		c-1.772,0-3.214,1.439-3.214,3.209s1.442,3.209,3.214,3.209c1.77,0,3.209-1.439,3.209-3.209S33.309,28.899,31.539,28.899"/>
	<path clip-path="url(#SVGID_2_)" fill="#252C4B" d="M31.539,36.736c-2.554,0-4.632-2.076-4.632-4.628
		c0-2.552,2.078-4.628,4.632-4.628c2.551,0,4.627,2.076,4.627,4.628C36.166,34.66,34.09,36.736,31.539,36.736 M31.539,27.98
		c-2.278,0-4.132,1.852-4.132,4.128c0,2.277,1.854,4.128,4.132,4.128c2.275,0,4.127-1.851,4.127-4.128
		C35.666,29.832,33.814,27.98,31.539,27.98 M31.539,35.567c-1.91,0-3.464-1.551-3.464-3.459c0-1.907,1.554-3.459,3.464-3.459
		c1.907,0,3.459,1.552,3.459,3.459C34.998,34.016,33.446,35.567,31.539,35.567 M31.539,29.149c-1.634,0-2.964,1.328-2.964,2.959
		c0,1.632,1.33,2.959,2.964,2.959c1.631,0,2.959-1.327,2.959-2.959C34.498,30.477,33.17,29.149,31.539,29.149"/>
	
		<line clip-path="url(#SVGID_2_)" fill="none" stroke="#252C4B" stroke-width="2" stroke-miterlimit="10" x1="89.173" y1="6.478" x2="94.36" y2="6.478"/>
</g>
</svg>
