<?xml version="1.0" encoding="UTF-8"?> <!-- Generator: Adobe Illustrator 16.0.0, SVG Export Plug-In . SVG Version: 6.00 Build 0) --> <svg xmlns="http://www.w3.org/2000/svg" xmlns:xlink="http://www.w3.org/1999/xlink" id="Layer_1" x="0px" y="0px" width="67.559px" height="79.11px" viewBox="0 0 67.559 79.11" xml:space="preserve"> <polygon fill="#59C4EC" points="54.499,42.957 59.595,42.957 59.595,45.829 54.499,45.829 54.499,44.403 "></polygon> <polygon fill="#59C4EC" points="12.659,42.957 7.554,42.957 7.554,45.829 12.659,45.829 12.659,44.403 "></polygon> <g> <defs> <rect id="SVGID_1_" y="0" width="67.559" height="79.111"></rect> </defs> <clipPath id="SVGID_2_"> <use xlink:href="#SVGID_1_" overflow="visible"></use> </clipPath> <path clip-path="url(#SVGID_2_)" fill="#59C4EC" d="M46.188,16.098c-0.144-0.917-0.38-1.787-0.702-2.626l0.627-0.489l3.182-2.539 l-1.25-2.167l-4.54,1.787c-0.566-0.713-1.199-1.348-1.915-1.924l1.789-4.532l-2.17-1.249l-3.025,3.808 c-0.84-0.321-1.72-0.566-2.616-0.693l-0.733-4.824h-2.498L31.61,5.474c-0.908,0.127-1.777,0.372-2.614,0.693l-3.029-3.808 l-2.165,1.249l1.777,4.532c-0.704,0.576-1.35,1.211-1.916,1.924l-4.529-1.787l-1.252,2.167l3.183,2.539l0.625,0.489 c-0.322,0.839-0.565,1.709-0.703,2.626l-4.814,0.723v1.249v1.249l4.814,0.723c0.138,0.898,0.381,1.787,0.703,2.616l-3.808,3.038 l1.252,2.167l4.529-1.787c0.566,0.693,1.212,1.348,1.916,1.914l-1.777,4.532l2.165,1.25l3.029-3.8 c0.837,0.322,1.706,0.548,2.614,0.693l0.725,4.815h2.498l0.733-4.815c0.896-0.145,1.776-0.371,2.616-0.693l3.025,3.8l2.17-1.25 l-1.789-4.532c0.716-0.566,1.349-1.221,1.915-1.914l4.54,1.778l1.25-2.158l-3.809-3.038c0.322-0.829,0.559-1.718,0.702-2.616 l4.813-0.731v-1.241V16.82L46.188,16.098z M33.783,24.46c-3.529,0-6.392-2.861-6.392-6.391c0-3.53,2.863-6.391,6.392-6.391 c3.529,0,6.393,2.861,6.393,6.391C40.176,21.6,37.313,24.46,33.783,24.46"></path> <path clip-path="url(#SVGID_2_)" fill="none" stroke="#252C4B" stroke-width="1.3" stroke-linecap="round" stroke-linejoin="round" stroke-miterlimit="10" d=" M33.583,11.673c3.536,0,6.396,2.872,6.396,6.396c0,3.525-2.86,6.396-6.396,6.396c-3.523,0-6.386-2.871-6.386-6.396 C27.197,14.545,30.06,11.673,33.583,11.673z"></path> <polygon clip-path="url(#SVGID_2_)" fill="none" stroke="#252C4B" stroke-width="1.3" stroke-linecap="round" stroke-linejoin="round" stroke-miterlimit="10" points=" 16.263,74.7 23.097,74.7 44.47,74.7 51.296,74.7 51.296,78.461 16.263,78.461 "></polygon> <polygon clip-path="url(#SVGID_2_)" fill="none" stroke="#252C4B" stroke-width="1.3" stroke-linecap="round" stroke-linejoin="round" stroke-miterlimit="10" points=" 41.325,62.749 44.471,74.7 23.096,74.7 26.241,62.749 "></polygon> <path clip-path="url(#SVGID_2_)" fill="none" stroke="#252C4B" stroke-width="1.3" stroke-linecap="round" stroke-linejoin="round" stroke-miterlimit="10" d=" M3.754,55.084h60.049c1.709,0,3.104-1.404,3.104-3.113v7.107c0,2.011-1.65,3.671-3.671,3.671H41.325H26.242h-6.414H4.332 c-2.022,0-3.681-1.66-3.681-3.671v-7.107C0.65,53.68,2.045,55.084,3.754,55.084z M32.393,58.922c0,0.763,0.625,1.378,1.387,1.378 c0.771,0,1.387-0.615,1.387-1.378c0-0.771-0.615-1.396-1.387-1.396C33.018,57.526,32.393,58.151,32.393,58.922z"></path> <polygon clip-path="url(#SVGID_2_)" fill="none" stroke="#252C4B" stroke-width="1.3" stroke-linecap="round" stroke-linejoin="round" stroke-miterlimit="10" points=" 12.659,42.957 12.659,44.403 12.659,45.829 7.554,45.829 7.554,42.957 "></polygon> <polygon clip-path="url(#SVGID_2_)" fill="none" stroke="#252C4B" stroke-width="1.3" stroke-linecap="round" stroke-linejoin="round" stroke-miterlimit="10" points=" 38.631,41.562 38.631,44.404 38.631,47.245 28.554,47.245 28.554,41.562 "></polygon> <polygon clip-path="url(#SVGID_2_)" fill="none" stroke="#252C4B" stroke-width="1.3" stroke-linecap="round" stroke-linejoin="round" stroke-miterlimit="10" points=" 54.499,42.957 59.595,42.957 59.595,45.829 54.499,45.829 54.499,44.403 "></polygon> <path clip-path="url(#SVGID_2_)" fill="none" stroke="#252C4B" stroke-width="1.3" stroke-linecap="round" stroke-linejoin="round" stroke-miterlimit="10" d=" M46.188,16.097c-0.144-0.917-0.38-1.787-0.702-2.626l0.627-0.488l3.182-2.539l-1.25-2.167l-4.54,1.786 c-0.566-0.713-1.2-1.348-1.915-1.924l1.789-4.531l-2.17-1.249l-3.025,3.807c-0.841-0.321-1.72-0.566-2.616-0.693L34.833,0.65 h-2.498L31.61,5.473c-0.908,0.127-1.777,0.372-2.614,0.693l-3.029-3.807l-2.165,1.249l1.777,4.531 c-0.704,0.576-1.35,1.211-1.916,1.924l-4.529-1.786l-1.252,2.167l3.183,2.539l0.625,0.488c-0.322,0.839-0.565,1.709-0.703,2.626 l-4.814,0.723v1.249v1.25l4.814,0.722c0.138,0.899,0.381,1.787,0.703,2.616l-3.808,3.038l1.252,2.167l4.529-1.787 c0.566,0.693,1.212,1.348,1.916,1.914l-1.777,4.532l2.165,1.25l3.029-3.8c0.837,0.322,1.706,0.548,2.614,0.693l0.725,4.815h2.498 l0.733-4.815c0.896-0.145,1.775-0.371,2.616-0.693l3.025,3.8l2.17-1.25l-1.789-4.532c0.715-0.566,1.349-1.221,1.915-1.914 l4.54,1.778l1.25-2.158l-3.809-3.038c0.322-0.829,0.559-1.717,0.702-2.616l4.813-0.731v-1.241V16.82L46.188,16.097z M33.583,24.465 c-3.523,0-6.385-2.871-6.385-6.396c0-3.524,2.862-6.396,6.385-6.396c3.535,0,6.396,2.872,6.396,6.396 C39.979,21.594,37.118,24.465,33.583,24.465z"></path> <path clip-path="url(#SVGID_2_)" fill="none" stroke="#252C4B" stroke-width="1.3" stroke-linecap="round" stroke-linejoin="round" stroke-miterlimit="10" d=" M7.553,42.958v2.871h5.106v-1.426v-1.445H7.553z M59.595,42.958h-5.096v1.445v1.426h5.096V42.958z M38.632,41.561H28.553v5.684 h10.079v-2.841V41.561z M31.611,30.665l0.723,4.814h2.499l0.733-4.814c0.897-0.146,1.775-0.371,2.616-0.693l3.025,3.799l2.17-1.25 L41.59,27.99c0.714-0.566,1.348-1.221,1.915-1.914l4.538,1.777l1.25-2.157l-3.809-3.038c0.323-0.829,0.559-1.718,0.703-2.616 l4.813-0.731v-1.241V16.82l-4.813-0.723c-0.145-0.917-0.38-1.787-0.703-2.626l0.628-0.489h17.125c2.021,0,3.671,1.651,3.671,3.671 v35.317c0,1.709-1.396,3.114-3.104,3.114H3.755c-1.709,0-3.105-1.405-3.105-3.114V16.653c0-2.02,1.659-3.671,3.682-3.671h16.734 l0.625,0.489c-0.322,0.839-0.566,1.709-0.704,2.626l-4.814,0.723v1.249v1.249l4.814,0.723c0.138,0.898,0.382,1.787,0.704,2.616 l-3.809,3.038l1.251,2.167l4.53-1.787c0.566,0.693,1.212,1.348,1.916,1.914L23.8,32.521l2.166,1.25l3.03-3.799 C29.833,30.293,30.701,30.519,31.611,30.665z"></path> <path clip-path="url(#SVGID_2_)" fill="none" stroke="#252C4B" stroke-width="1.3" stroke-linecap="round" stroke-linejoin="round" stroke-miterlimit="2.613" d=" M26.241,62.749h-6.414H4.333c-2.023,0-3.682-1.659-3.682-3.671v-7.107V16.653c0-2.02,1.659-3.671,3.682-3.671h16.734"></path> <path clip-path="url(#SVGID_2_)" fill="none" stroke="#252C4B" stroke-width="1.3" stroke-linecap="round" stroke-linejoin="round" stroke-miterlimit="2.613" d=" M46.112,12.983h17.125c2.021,0,3.671,1.65,3.671,3.671V51.97v7.109c0,2.01-1.649,3.671-3.671,3.671H41.325"></path> <path clip-path="url(#SVGID_2_)" fill="none" stroke="#252C4B" stroke-width="1.3" stroke-linecap="round" stroke-linejoin="round" stroke-miterlimit="2.613" d=" M66.908,51.97c0,1.709-1.396,3.114-3.104,3.114H3.755c-1.709,0-3.105-1.405-3.105-3.114"></path> <polyline clip-path="url(#SVGID_2_)" fill="none" stroke="#252C4B" stroke-width="1.3" stroke-linecap="round" stroke-linejoin="round" stroke-miterlimit="2.613" points=" 23.097,74.7 26.242,62.75 41.326,62.75 44.47,74.7 "></polyline> <path clip-path="url(#SVGID_2_)" fill="none" stroke="#252C4B" stroke-width="1.3" stroke-linecap="round" stroke-linejoin="round" stroke-miterlimit="2.613" d=" M33.779,57.525c0.771,0,1.387,0.625,1.387,1.396c0,0.762-0.615,1.377-1.387,1.377c-0.762,0-1.387-0.615-1.387-1.377 C32.393,58.15,33.018,57.525,33.779,57.525z"></path> <polygon clip-path="url(#SVGID_2_)" fill="none" stroke="#252C4B" stroke-width="1.3" stroke-linecap="round" stroke-linejoin="round" stroke-miterlimit="2.613" points=" 44.47,74.7 51.296,74.7 51.296,78.461 16.263,78.461 16.263,74.7 23.097,74.7 "></polygon> <path clip-path="url(#SVGID_2_)" fill="none" stroke="#252C4B" stroke-width="1.3" stroke-linecap="round" stroke-linejoin="round" stroke-miterlimit="2.613" d=" M33.583,11.673c3.536,0,6.396,2.872,6.396,6.396c0,3.525-2.86,6.396-6.396,6.396c-3.523,0-6.386-2.871-6.386-6.396 C27.197,14.545,30.06,11.673,33.583,11.673z"></path> <polygon clip-path="url(#SVGID_2_)" fill="none" stroke="#252C4B" stroke-width="1.3" stroke-linecap="round" stroke-linejoin="round" stroke-miterlimit="2.613" points=" 28.554,41.562 38.631,41.562 38.631,44.404 38.631,47.245 28.554,47.245 "></polygon> <line clip-path="url(#SVGID_2_)" fill="none" stroke="#252C4B" stroke-width="1.3" stroke-linecap="round" stroke-linejoin="round" stroke-miterlimit="2.613" x1="38.631" y1="44.403" x2="54.499" y2="44.403"></line> <line clip-path="url(#SVGID_2_)" fill="none" stroke="#252C4B" stroke-width="1.3" stroke-linecap="round" stroke-linejoin="round" stroke-miterlimit="2.613" x1="28.517" y1="44.403" x2="12.66" y2="44.403"></line> </g> </svg> 