<?xml version="1.0" encoding="UTF-8"?> <!-- Generator: Adobe Illustrator 16.0.0, SVG Export Plug-In . SVG Version: 6.00 Build 0) --> <svg xmlns="http://www.w3.org/2000/svg" xmlns:xlink="http://www.w3.org/1999/xlink" id="Layer_1" x="0px" y="0px" width="109.908px" height="81.11px" viewBox="0 0 109.908 81.11" xml:space="preserve"> <rect x="38.764" y="48.517" fill="#59C3EB" width="24.195" height="6.557"></rect> <g> <defs> <rect id="SVGID_1_" y="0" width="109.908" height="81.11"></rect> </defs> <clipPath id="SVGID_2_"> <use xlink:href="#SVGID_1_" overflow="visible"></use> </clipPath> <path clip-path="url(#SVGID_2_)" fill="#59C3EB" d="M71.719,33.777c0,11.402-9.243,20.646-20.645,20.646 S30.428,45.18,30.428,33.777c0-11.401,9.244-20.645,20.646-20.645S71.719,22.376,71.719,33.777"></path> <path clip-path="url(#SVGID_2_)" fill="#252C4B" d="M62.863,67.965H39.026c-0.359,0-0.65-0.291-0.65-0.65v-15.66 c-5.659-4.061-9.027-10.601-9.027-17.566c0-11.915,9.69-21.61,21.601-21.61c11.91,0,21.599,9.695,21.599,21.61 c0,6.962-3.371,13.502-9.035,17.566v15.66C63.514,67.674,63.223,67.965,62.863,67.965 M39.676,66.664h22.537V51.317 c0-0.213,0.105-0.412,0.279-0.534c5.483-3.805,8.757-10.046,8.757-16.695c0-11.198-9.105-20.309-20.299-20.309 c-11.194,0-20.301,9.111-20.301,20.309c0,6.653,3.27,12.895,8.748,16.695c0.175,0.122,0.279,0.321,0.279,0.534V66.664z"></path> <path clip-path="url(#SVGID_2_)" fill="#252C4B" d="M49.677,8.396c-0.359,0-0.65-0.291-0.65-0.65V0.65 c0-0.359,0.291-0.65,0.65-0.65s0.65,0.291,0.65,0.65v7.096C50.327,8.105,50.036,8.396,49.677,8.396"></path> <path clip-path="url(#SVGID_2_)" fill="#252C4B" d="M58.172,10.206c-0.057,0-0.113-0.008-0.17-0.022 c-0.347-0.094-0.552-0.451-0.459-0.797l1.841-6.852c0.094-0.347,0.455-0.549,0.797-0.459c0.346,0.094,0.552,0.45,0.459,0.797 l-1.841,6.852C58.721,10.015,58.458,10.206,58.172,10.206"></path> <path clip-path="url(#SVGID_2_)" fill="#252C4B" d="M66.177,14.193c-0.11,0-0.222-0.028-0.324-0.087 c-0.311-0.18-0.418-0.577-0.237-0.888l3.544-6.151c0.18-0.311,0.577-0.418,0.888-0.239c0.311,0.179,0.418,0.577,0.238,0.887 l-3.545,6.152C66.62,14.076,66.401,14.193,66.177,14.193"></path> <path clip-path="url(#SVGID_2_)" fill="#252C4B" d="M72.131,20.146c-0.167,0-0.333-0.063-0.459-0.19 c-0.255-0.254-0.255-0.666,0-0.92l5.02-5.02c0.253-0.254,0.665-0.254,0.918,0c0.254,0.254,0.254,0.666,0,0.92l-5.02,5.02 C72.464,20.083,72.298,20.146,72.131,20.146"></path> <path clip-path="url(#SVGID_2_)" fill="#252C4B" d="M27.895,21.8c-0.167,0-0.333-0.064-0.46-0.191l-5.012-5.021 c-0.254-0.254-0.254-0.665,0-0.919c0.255-0.254,0.666-0.253,0.92,0.001l5.012,5.021c0.254,0.254,0.253,0.665-0.001,0.919 C28.228,21.737,28.061,21.8,27.895,21.8"></path> <path clip-path="url(#SVGID_2_)" fill="#252C4B" d="M33.484,15.358c-0.225,0-0.443-0.117-0.563-0.325l-3.551-6.144 c-0.179-0.31-0.073-0.708,0.238-0.887c0.311-0.182,0.708-0.074,0.888,0.237l3.55,6.143c0.18,0.311,0.074,0.708-0.237,0.888 C33.707,15.331,33.594,15.358,33.484,15.358"></path> <path clip-path="url(#SVGID_2_)" fill="#252C4B" d="M41.255,10.814c-0.287,0-0.549-0.191-0.627-0.481l-1.841-6.852 c-0.093-0.347,0.113-0.703,0.459-0.797c0.345-0.089,0.704,0.112,0.797,0.459l1.84,6.852c0.093,0.346-0.112,0.703-0.459,0.797 C41.368,10.807,41.312,10.814,41.255,10.814"></path> <path clip-path="url(#SVGID_2_)" fill="#FFFFFF" d="M37.272,44.931c-0.226,0-0.443-0.118-0.562-0.324l-1.189-2.05 c-0.163-0.278-0.096-0.634,0.157-0.835l3.238-2.577c-0.186-0.545-0.335-1.11-0.448-1.691l-4.094-0.615 c-0.318-0.048-0.554-0.321-0.554-0.642v-2.362c0-0.322,0.236-0.594,0.554-0.642l4.093-0.614c0.114-0.585,0.263-1.151,0.448-1.69 l-3.237-2.576c-0.252-0.201-0.32-0.556-0.158-0.835l1.19-2.052c0.162-0.277,0.501-0.396,0.8-0.278l3.849,1.515 c0.373-0.429,0.788-0.842,1.237-1.234l-1.515-3.852c-0.118-0.299,0.002-0.64,0.28-0.801l2.05-1.182 c0.277-0.16,0.632-0.093,0.833,0.158l2.575,3.235c0.535-0.187,1.099-0.337,1.684-0.452l0.613-4.094 c0.048-0.319,0.322-0.554,0.643-0.554h2.37c0.322,0,0.595,0.235,0.643,0.554l0.616,4.094c0.583,0.114,1.149,0.265,1.69,0.453 l2.569-3.235c0.199-0.252,0.554-0.32,0.833-0.159l2.051,1.182c0.278,0.161,0.397,0.502,0.279,0.801l-1.517,3.852 c0.448,0.391,0.862,0.804,1.237,1.234l3.856-1.515c0.301-0.119,0.641,0,0.802,0.28l1.181,2.052c0.16,0.278,0.093,0.633-0.159,0.833 l-3.235,2.575c0.192,0.558,0.344,1.124,0.45,1.691l4.089,0.614c0.319,0.048,0.555,0.32,0.555,0.642v2.362 c0,0.321-0.235,0.594-0.554,0.642l-4.09,0.614c-0.106,0.563-0.258,1.129-0.451,1.692l3.236,2.577 c0.252,0.2,0.319,0.555,0.159,0.833l-1.181,2.05c-0.161,0.28-0.5,0.401-0.802,0.28l-4.294-1.688 c-0.334-0.131-0.498-0.508-0.367-0.843c0.132-0.334,0.51-0.499,0.844-0.366l3.771,1.483l0.622-1.08l-3.164-2.52 c-0.222-0.176-0.304-0.477-0.202-0.742c0.301-0.78,0.51-1.568,0.622-2.342c0.042-0.283,0.264-0.506,0.547-0.548l4.002-0.602v-1.242 l-4.002-0.6c-0.283-0.042-0.506-0.265-0.547-0.549c-0.113-0.785-0.322-1.572-0.621-2.339c-0.103-0.266-0.021-0.567,0.201-0.745 l3.164-2.518l-0.622-1.082l-3.771,1.482c-0.268,0.108-0.568,0.024-0.746-0.198c-0.487-0.61-1.064-1.186-1.716-1.715 c-0.221-0.179-0.3-0.479-0.195-0.743l1.483-3.766L58.316,21l-2.514,3.164c-0.178,0.224-0.482,0.307-0.747,0.201 c-0.729-0.288-1.517-0.498-2.342-0.627c-0.28-0.044-0.5-0.266-0.542-0.546l-0.602-4.004h-1.251l-0.6,4.004 c-0.042,0.28-0.261,0.502-0.542,0.546c-0.832,0.13-1.616,0.34-2.332,0.626c-0.264,0.106-0.57,0.026-0.749-0.199L43.575,21 l-1.079,0.622l1.481,3.766c0.104,0.265,0.024,0.564-0.196,0.743c-0.654,0.53-1.231,1.107-1.715,1.714 c-0.177,0.224-0.48,0.307-0.746,0.199l-3.766-1.482l-0.628,1.083l3.164,2.517c0.223,0.178,0.305,0.479,0.202,0.745 c-0.283,0.726-0.492,1.516-0.624,2.347c-0.044,0.281-0.265,0.499-0.545,0.541l-4.003,0.6v1.242l4.003,0.602 c0.28,0.042,0.501,0.26,0.545,0.541c0.13,0.82,0.34,1.61,0.625,2.349c0.101,0.265,0.02,0.566-0.203,0.742l-3.164,2.519l0.628,1.081 l3.766-1.483c0.333-0.133,0.711,0.032,0.843,0.366c0.131,0.334-0.033,0.712-0.367,0.843l-4.286,1.688 C37.433,44.916,37.352,44.931,37.272,44.931"></path> <path clip-path="url(#SVGID_2_)" fill="#252C4B" d="M65.934,55.724H35.957c-0.358,0-0.649-0.291-0.649-0.65s0.291-0.65,0.649-0.65 h29.977c0.359,0,0.65,0.291,0.65,0.65S66.293,55.724,65.934,55.724"></path> <path clip-path="url(#SVGID_2_)" fill="#252C4B" d="M65.934,60.11H35.957c-0.358,0-0.649-0.291-0.649-0.65s0.291-0.65,0.649-0.65 h29.977c0.359,0,0.65,0.291,0.65,0.65S66.293,60.11,65.934,60.11"></path> <path clip-path="url(#SVGID_2_)" fill="#252C4B" d="M65.934,64.108H35.957c-0.358,0-0.649-0.291-0.649-0.65s0.291-0.65,0.649-0.65 h29.977c0.359,0,0.65,0.291,0.65,0.65S66.293,64.108,65.934,64.108"></path> <path clip-path="url(#SVGID_2_)" fill="#252C4B" d="M58.712,75.01H43.178c-0.359,0-0.65-0.291-0.65-0.65v-7.045 c0-0.359,0.291-0.65,0.65-0.65h15.534c0.359,0,0.65,0.291,0.65,0.65v7.045C59.362,74.719,59.071,75.01,58.712,75.01 M43.828,73.709 h14.233v-5.743H43.828V73.709z"></path> <path clip-path="url(#SVGID_2_)" fill="#252C4B" d="M53.439,81.11h-4.986c-0.359,0-0.65-0.291-0.65-0.65v-6.101 c0-0.359,0.291-0.65,0.65-0.65h4.986c0.359,0,0.65,0.291,0.65,0.65v6.101C54.089,80.819,53.798,81.11,53.439,81.11 M49.103,79.81 h3.687v-4.8h-3.687V79.81z"></path> <path clip-path="url(#SVGID_2_)" fill="#FFFFFF" d="M50.959,41.898c-3.667,0-6.65-2.983-6.65-6.65s2.983-6.651,6.65-6.651 c3.667,0,6.65,2.984,6.65,6.651S54.627,41.898,50.959,41.898 M50.959,29.898c-2.95,0-5.35,2.399-5.35,5.35 c0,2.95,2.4,5.349,5.35,5.349s5.35-2.399,5.35-5.349C56.31,32.297,53.91,29.898,50.959,29.898"></path> <polygon clip-path="url(#SVGID_2_)" fill="#252C4B" points="0.919,67.208 0,66.288 12.419,53.869 18.395,58.848 27.374,48.871 31.403,51.895 34.853,48.517 35.762,49.446 31.516,53.604 27.545,50.625 18.524,60.648 12.5,55.627 "></polygon> <polygon clip-path="url(#SVGID_2_)" fill="#252C4B" points="71.403,41.456 70.516,40.507 75.155,36.171 79.546,39.314 89.51,28.748 96.162,34.04 109.011,21.778 109.908,22.718 96.24,35.763 89.636,30.51 79.713,41.033 75.266,37.849 "></polygon> </g> </svg> 