<?xml version="1.0" encoding="UTF-8"?> <!-- Generator: Adobe Illustrator 16.0.0, SVG Export Plug-In . SVG Version: 6.00 Build 0) --> <svg xmlns="http://www.w3.org/2000/svg" xmlns:xlink="http://www.w3.org/1999/xlink" id="Layer_1" x="0px" y="0px" width="96.091px" height="74.102px" viewBox="0 0 96.091 74.102" xml:space="preserve"> <g> <defs> <rect id="SVGID_1_" y="0" width="96.091" height="74.102"></rect> </defs> <clipPath id="SVGID_2_"> <use xlink:href="#SVGID_1_" overflow="visible"></use> </clipPath> <path clip-path="url(#SVGID_2_)" fill="#59C4EC" d="M71.004,45.471v14.17l1.25,3.106l1.301,1.644l9.6,9.167l10.267-9.75l0.75-1.061 l0.622-2.022l0.628-1.664v-13.59c0,0-8.198,0.574-12.267-2.419C83.154,43.052,75.254,46.717,71.004,45.471"></path> <polygon clip-path="url(#SVGID_2_)" fill="#59C4EC" points="28.003,15.646 28.003,22.608 47.67,22.608 52.671,25.808 90.683,25.636 90.683,15.058 "></polygon> <path clip-path="url(#SVGID_2_)" fill="#252C4B" d="M27.898,48.519H17.633c-0.358,0-0.649-0.291-0.649-0.65V0.65 c0-0.36,0.291-0.651,0.649-0.651H80.27c0.358,0,0.649,0.291,0.649,0.651v14.879c0,0.359-0.291,0.65-0.649,0.65 c-0.359,0-0.65-0.291-0.65-0.65V1.3H18.284v45.917h9.614c0.359,0,0.65,0.291,0.65,0.65S28.257,48.519,27.898,48.519"></path> <path clip-path="url(#SVGID_2_)" fill="#252C4B" d="M71.416,63.061H27.815c-0.359,0-0.65-0.291-0.65-0.65V15.191 c0-0.36,0.291-0.651,0.65-0.651h62.627c0.36,0,0.651,0.291,0.651,0.651v29.758c0,0.359-0.291,0.65-0.651,0.65 c-0.358,0-0.649-0.291-0.649-0.65V15.841H28.465V61.76h42.951c0.358,0,0.649,0.291,0.649,0.65S71.774,63.061,71.416,63.061"></path> <path clip-path="url(#SVGID_2_)" fill="#252C4B" d="M90.032,26.286H52.388c-0.127,0-0.25-0.037-0.355-0.106l-4.554-2.984H28.31 c-0.358,0-0.65-0.291-0.65-0.65c0-0.36,0.292-0.651,0.65-0.651h19.363c0.127,0,0.25,0.037,0.356,0.107l4.554,2.983h37.449 c0.358,0,0.649,0.291,0.649,0.651C90.682,25.995,90.391,26.286,90.032,26.286"></path> <path clip-path="url(#SVGID_2_)" fill="#252C4B" d="M84.576,22.608c-1.097,0-2.059-0.966-2.059-2.068 c0-1.188,0.923-2.156,2.059-2.156c1.179,0,2.138,0.968,2.138,2.156C86.714,21.662,85.733,22.608,84.576,22.608 M84.576,19.686 c-0.403,0-0.758,0.399-0.758,0.855c0,0.395,0.367,0.767,0.758,0.767c0.445,0,0.837-0.358,0.837-0.767 C85.413,20.069,85.038,19.686,84.576,19.686"></path> <path clip-path="url(#SVGID_2_)" fill="#252C4B" d="M79.609,22.608c-1.097,0-2.058-0.966-2.058-2.068 c0-1.168,0.943-2.156,2.058-2.156c1.179,0,2.139,0.968,2.139,2.156C81.748,21.662,80.768,22.608,79.609,22.608 M79.609,19.686 c-0.403,0-0.757,0.399-0.757,0.855c0,0.395,0.367,0.767,0.757,0.767c0.445,0,0.838-0.358,0.838-0.767 C80.447,20.062,80.079,19.686,79.609,19.686"></path> <path clip-path="url(#SVGID_2_)" fill="#252C4B" d="M79.774,11.413H42.126c-0.127,0-0.251-0.037-0.357-0.106l-4.551-2.981H18.133 c-0.358,0-0.649-0.291-0.649-0.65c0-0.36,0.291-0.651,0.649-0.651h19.28c0.126,0,0.251,0.037,0.355,0.107l4.551,2.98h37.455 c0.358,0,0.649,0.291,0.649,0.651C80.424,11.122,80.133,11.413,79.774,11.413"></path> <path clip-path="url(#SVGID_2_)" fill="#252C4B" d="M74.395,7.735c-1.16,0-2.142-0.946-2.142-2.066c0-1.19,0.961-2.16,2.142-2.16 c1.115,0,2.06,0.989,2.06,2.16C76.454,6.77,75.491,7.735,74.395,7.735 M74.395,4.811c-0.472,0-0.84,0.377-0.84,0.859 c0,0.363,0.345,0.765,0.84,0.765c0.383,0,0.759-0.379,0.759-0.765C75.153,5.164,74.753,4.811,74.395,4.811"></path> <path clip-path="url(#SVGID_2_)" fill="#252C4B" d="M69.35,7.735c-1.098,0-2.061-0.966-2.061-2.066c0-1.171,0.944-2.16,2.061-2.16 c1.179,0,2.138,0.97,2.138,2.16C71.487,6.79,70.507,7.735,69.35,7.735 M69.35,4.811c-0.359,0-0.76,0.353-0.76,0.859 c0,0.386,0.376,0.765,0.76,0.765c0.493,0,0.837-0.402,0.837-0.765C70.187,5.188,69.819,4.811,69.35,4.811"></path> <path clip-path="url(#SVGID_2_)" fill="#59C4EC" d="M59.835,34.813H34.268c-0.36,0-0.651-0.291-0.651-0.65 c0-0.36,0.291-0.651,0.651-0.651h25.567c0.358,0,0.649,0.291,0.649,0.651C60.484,34.521,60.193,34.813,59.835,34.813"></path> <path clip-path="url(#SVGID_2_)" fill="#59C4EC" d="M67.112,34.813h-4.135c-0.358,0-0.649-0.291-0.649-0.65 c0-0.36,0.291-0.651,0.649-0.651h4.135c0.358,0,0.649,0.291,0.649,0.651C67.762,34.521,67.471,34.813,67.112,34.813"></path> <path clip-path="url(#SVGID_2_)" fill="#252C4B" d="M54.374,38.91H34.268c-0.36,0-0.651-0.291-0.651-0.65s0.291-0.65,0.651-0.65 h20.106c0.358,0,0.649,0.291,0.649,0.65S54.732,38.91,54.374,38.91"></path> <path clip-path="url(#SVGID_2_)" fill="#252C4B" d="M67.112,38.91h-4.135c-0.358,0-0.649-0.291-0.649-0.65s0.291-0.65,0.649-0.65 h4.135c0.358,0,0.649,0.291,0.649,0.65S67.471,38.91,67.112,38.91"></path> <path clip-path="url(#SVGID_2_)" fill="#252C4B" d="M59.917,38.91h-2.896c-0.358,0-0.649-0.291-0.649-0.65s0.291-0.65,0.649-0.65 h2.896c0.358,0,0.649,0.291,0.649,0.65S60.275,38.91,59.917,38.91"></path> <path clip-path="url(#SVGID_2_)" fill="#252C4B" d="M67.112,42.671H47.008c-0.36,0-0.651-0.291-0.651-0.65s0.291-0.65,0.651-0.65 h20.104c0.358,0,0.649,0.291,0.649,0.65S67.471,42.671,67.112,42.671"></path> <path clip-path="url(#SVGID_2_)" fill="#252C4B" d="M38.406,42.671h-4.139c-0.359,0-0.65-0.291-0.65-0.65s0.291-0.65,0.65-0.65 h4.139c0.358,0,0.649,0.291,0.649,0.65S38.764,42.671,38.406,42.671"></path> <path clip-path="url(#SVGID_2_)" fill="#252C4B" d="M44.362,42.671h-2.897c-0.359,0-0.65-0.291-0.65-0.65s0.291-0.65,0.65-0.65 h2.897c0.359,0,0.65,0.291,0.65,0.65S44.721,42.671,44.362,42.671"></path> <path clip-path="url(#SVGID_2_)" fill="#252C4B" d="M67.112,46.765h-25.23c-0.36,0-0.651-0.291-0.651-0.65s0.291-0.65,0.651-0.65 h25.23c0.358,0,0.649,0.291,0.649,0.65S67.471,46.765,67.112,46.765"></path> <path clip-path="url(#SVGID_2_)" fill="#252C4B" d="M38.406,46.765h-4.139c-0.359,0-0.65-0.291-0.65-0.65s0.291-0.65,0.65-0.65 h4.139c0.358,0,0.649,0.291,0.649,0.65S38.764,46.765,38.406,46.765"></path> <path clip-path="url(#SVGID_2_)" fill="#252C4B" d="M54.374,50.771H34.268c-0.36,0-0.651-0.291-0.651-0.65s0.291-0.65,0.651-0.65 h20.106c0.358,0,0.649,0.291,0.649,0.65S54.732,50.771,54.374,50.771"></path> <path clip-path="url(#SVGID_2_)" fill="#252C4B" d="M67.112,50.771h-4.135c-0.358,0-0.649-0.291-0.649-0.65s0.291-0.65,0.649-0.65 h4.135c0.358,0,0.649,0.291,0.649,0.65S67.471,50.771,67.112,50.771"></path> <path clip-path="url(#SVGID_2_)" fill="#252C4B" d="M59.917,50.771h-2.896c-0.358,0-0.649-0.291-0.649-0.65s0.291-0.65,0.649-0.65 h2.896c0.358,0,0.649,0.291,0.649,0.65S60.275,50.771,59.917,50.771"></path> <path clip-path="url(#SVGID_2_)" fill="#252C4B" d="M33.522,19.519h-2.069c-0.359,0-0.65-0.291-0.65-0.65 c0-0.36,0.291-0.651,0.65-0.651h2.069c0.359,0,0.65,0.291,0.65,0.651C34.172,19.228,33.881,19.519,33.522,19.519"></path> <path clip-path="url(#SVGID_2_)" fill="#252C4B" d="M36.999,19.519h-2.067c-0.359,0-0.65-0.291-0.65-0.65 c0-0.36,0.291-0.651,0.65-0.651h2.067c0.358,0,0.649,0.291,0.649,0.651C37.647,19.228,37.357,19.519,36.999,19.519"></path> <path clip-path="url(#SVGID_2_)" fill="#252C4B" d="M40.472,19.519h-2.066c-0.36,0-0.651-0.291-0.651-0.65 c0-0.36,0.291-0.651,0.651-0.651h2.066c0.358,0,0.65,0.291,0.65,0.651C41.122,19.228,40.83,19.519,40.472,19.519"></path> <path clip-path="url(#SVGID_2_)" fill="#252C4B" d="M23.259,4.975h-2.066c-0.359,0-0.65-0.291-0.65-0.65 c0-0.36,0.291-0.651,0.65-0.651h2.066c0.359,0,0.65,0.291,0.65,0.651C23.909,4.684,23.618,4.975,23.259,4.975"></path> <path clip-path="url(#SVGID_2_)" fill="#252C4B" d="M26.741,4.975h-2.072c-0.359,0-0.65-0.291-0.65-0.65 c0-0.36,0.291-0.651,0.65-0.651h2.072c0.359,0,0.649,0.291,0.649,0.651C27.39,4.684,27.1,4.975,26.741,4.975"></path> <path clip-path="url(#SVGID_2_)" fill="#252C4B" d="M30.211,4.975h-2.066c-0.36,0-0.651-0.291-0.651-0.65 c0-0.36,0.291-0.651,0.651-0.651h2.066c0.358,0,0.649,0.291,0.649,0.651C30.861,4.684,30.57,4.975,30.211,4.975"></path> <path clip-path="url(#SVGID_2_)" fill="#252C4B" d="M83.169,74.102c-0.158,0-0.315-0.057-0.438-0.171 c-1.82-1.662-3.372-3.027-4.696-4.192c-7.834-6.892-7.906-7.069-7.795-19.041c0.015-1.598,0.03-3.412,0.03-5.489 c0-0.193,0.088-0.378,0.236-0.5c0.148-0.124,0.347-0.177,0.534-0.139c4.299,0.801,8.278-0.012,11.76-2.408 c0.245-0.169,0.571-0.15,0.795,0.044c2.632,2.287,6.431,3.055,11.648,2.358c0.186-0.023,0.373,0.032,0.514,0.155 c0.142,0.124,0.222,0.302,0.222,0.489c0,2.595,0.037,4.765,0.07,6.607c0.187,10.622,0.11,10.792-8.083,18.157 c-1.249,1.123-2.69,2.419-4.356,3.956C83.485,74.044,83.327,74.102,83.169,74.102 M71.57,45.975 c-0.004,1.766-0.02,3.333-0.031,4.734c-0.107,11.49-0.107,11.49,7.353,18.053c1.222,1.074,2.637,2.318,4.275,3.808 c1.486-1.366,2.789-2.537,3.929-3.563c7.83-7.038,7.83-7.038,7.653-17.167c-0.029-1.674-0.063-3.615-0.07-5.896 c-4.972,0.548-8.8-0.268-11.551-2.437C79.668,45.751,75.767,46.59,71.57,45.975"></path> <path clip-path="url(#SVGID_2_)" fill="#252C4B" d="M83.169,68.668c-0.178,0-0.354-0.072-0.48-0.213 c-0.243-0.267-0.223-0.677,0.043-0.918c0.875-0.799,1.66-1.501,2.362-2.13c5.696-5.105,5.696-5.105,5.518-12.324 c-0.02-0.834-0.043-1.76-0.059-2.795c-2.978,0.009-5.465-0.563-7.569-1.749c-2.236,1.136-4.741,1.732-7.298,1.746 c-0.062,2.12-0.062,4.234-0.062,6.285c0,0.359-0.291,0.65-0.65,0.65c-0.36,0-0.651-0.291-0.651-0.65c0-2.267,0-4.611,0.084-6.968 c0.014-0.357,0.283-0.612,0.672-0.626c2.674,0.089,5.313-0.515,7.615-1.752c0.204-0.109,0.449-0.103,0.646,0.017 c2.098,1.27,4.66,1.837,7.833,1.735c0.17-0.008,0.344,0.059,0.47,0.18c0.126,0.12,0.198,0.286,0.201,0.461 c0.017,1.298,0.045,2.433,0.068,3.434c0.191,7.746,0.136,7.871-5.95,13.325c-0.699,0.626-1.48,1.326-2.355,2.122 C83.481,68.611,83.324,68.668,83.169,68.668"></path> <path clip-path="url(#SVGID_2_)" fill-rule="evenodd" clip-rule="evenodd" fill="#FFFFFF" d="M25.957,26.286 c0,7.167-5.811,12.978-12.979,12.978C5.811,39.264,0,33.453,0,26.286s5.811-12.978,12.978-12.978 C20.146,13.308,25.957,19.119,25.957,26.286"></path> <path clip-path="url(#SVGID_2_)" fill-rule="evenodd" clip-rule="evenodd" fill="#252C4B" d="M3.741,21.115 c1.749-3.263,5.258-5.398,9.305-5.398c2.618,0,5.012,1.117,6.85,2.692c-0.526-0.102-1.099,0.012-1.676,0.343 c-1.353,0.775-1.794,2.969-0.041,4.071c1.095,0.684,1.484,2.397,1.447,3.443c-0.036,1.048-2.544,5.861-2.544,5.861l-2.443-8.388 c0,0-0.084-0.588-0.084-0.758c0-0.213,0.07-0.476,0.203-0.626c0.091-0.099,0.229-0.308,0.394-0.308h1.157v-0.932h-6.293v0.932 h0.195c0.206,0,0.407,0.278,0.602,0.477c0.229,0.236,0.518,1.129,0.869,2.055l0.915,3.015l-1.972,4.557L8.46,23.043 c0,0,0.064-0.624,0.195-0.731c0.085-0.073,0.216-0.265,0.368-0.265h0.058v-0.932H3.741z M4.975,22.698c0,0-0.509-0.651-1.049-0.651 H3.377c-0.529,1.165-0.821,2.73-0.821,4.165c0,4.315,2.645,8.017,6.416,9.594L4.975,22.698z M22.071,21.031 c0.2,0.947,0.159,2.094-0.23,3.356c-1.015,3.283-3.525,9.191-4.497,11.441c3.648-1.63,6.19-5.266,6.19-9.495 C23.535,24.397,23,22.584,22.071,21.031 M13.257,29.898l-2.683,6.551c0.793,0.189,1.62,0.292,2.471,0.292 c0.881,0,1.736-0.109,2.554-0.311L13.257,29.898z"></path> </g> </svg> 