<?xml version="1.0" encoding="utf-8"?>
<!DOCTYPE svg PUBLIC "-//W3C//DTD SVG 1.1//EN" "http://www.w3.org/Graphics/SVG/1.1/DTD/svg11.dtd">
<svg version="1.1" id="Layer_1" xmlns="http://www.w3.org/2000/svg" xmlns:xlink="http://www.w3.org/1999/xlink" x="0px" y="0px"
	 width="247.264px" height="111.434px" viewBox="0 0 247.264 111.434" enable-background="new 0 0 247.264 111.434"
	 xml:space="preserve">
<g fill="#000000">
	<path d="M100.888,13.679c6.036-4.946,13.747-7.919,22.141-7.919c8.395,0,16.104,2.973,22.142,7.919
		h8.281C145.981,5.293,135.114,0,123.028,0c-12.084,0-22.953,5.294-30.421,13.679H100.888z"/>

	<path d="M145.17,67.817c-6.037,4.945-13.747,7.92-22.141,7.92c-8.395,0-16.106-2.975-22.142-7.92
		h-8.281c7.468,8.385,18.336,13.68,30.422,13.68c12.085,0,22.952-5.295,30.422-13.68H145.17z"/>
</g>
<g fill="#00B0D8">
	<rect x="0.546" y="21.515" fill="#00B0D8" width="5.696" height="39.308"/>
	<polygon fill="#00B0D8" points="20.178,60.824 14.481,60.824 14.481,21.515 20.34,21.515 
		39.643,51.266 39.373,21.515 44.989,21.515 44.989,60.824 39.535,60.824 19.8,30.182 	"/>
	<polygon fill="#00B0D8" points="63.271,60.824 57.575,60.824 57.575,26.807 50.231,26.807 
		50.231,21.515 70.614,21.515 70.614,26.807 63.271,26.807 	"/>
	<polygon fill="#00B0D8" points="96.24,60.824 75.831,60.824 75.831,21.515 96.24,21.515 96.24,26.753 
		81.527,26.753 81.527,38.497 96.24,38.497 96.24,43.627 81.527,43.627 81.527,55.397 96.24,55.397 	"/>
	<path fill="#00B0D8" d="M118.833,42.69l22.431-9.574c2.161,5.751,2.278,11.107,0.354,16.067
		c-1.924,4.96-5.509,8.56-10.755,10.798c-2.721,1.161-5.454,1.713-8.199,1.65c-2.744-0.061-5.466-0.729-8.168-2.003
		c-2.272-1.044-4.27-2.488-5.996-4.324s-3.119-3.996-4.179-6.479c-1.081-2.532-1.624-5.138-1.629-7.818
		c-0.005-2.678,0.534-5.325,1.616-7.939c1.011-2.506,2.417-4.656,4.221-6.455c1.804-1.797,4.034-3.263,6.689-4.396
		c3.669-1.566,7.253-2.083,10.749-1.55c3.493,0.535,6.621,2.081,9.383,4.64l-6.457,2.756c-1.853-1.028-3.777-1.577-5.772-1.645
		c-1.994-0.07-4.014,0.333-6.058,1.206c-1.714,0.731-3.205,1.749-4.476,3.055c-1.271,1.305-2.243,2.826-2.917,4.562
		c-0.704,1.807-1.044,3.704-1.021,5.69c0.022,1.987,0.408,3.858,1.157,5.612c0.805,1.886,1.882,3.536,3.231,4.947
		c1.349,1.41,2.875,2.476,4.577,3.197c1.798,0.76,3.663,1.148,5.596,1.164c1.932,0.016,3.747-0.337,5.442-1.06
		c2.757-1.178,4.878-2.949,6.363-5.315c1.486-2.366,2.299-5.271,2.438-8.717l-16.448,7.021L118.833,42.69z"/>
	<path fill="#00B0D8" d="M155.187,60.823h-5.696V21.516h11.34c4.715,0,8.314,1.089,10.798,3.266
		c2.484,2.178,3.726,5.329,3.726,9.45c0,3.203-1.039,5.881-3.118,8.031c-2.078,2.151-4.756,3.309-8.032,3.47l11.15,15.09h-7.127
		l-13.04-18.25V60.823z M155.187,41.926h2.916c3.942,0,6.875-0.639,8.802-1.917c1.926-1.277,2.889-3.222,2.889-5.831
		c0-2.538-0.829-4.401-2.484-5.589c-1.656-1.187-4.274-1.781-7.855-1.781h-4.267V41.926z"/>
	<rect x="182.109" y="21.515" fill="#00B0D8" width="5.694" height="39.308"/>
	<polygon fill="#00B0D8" points="207.239,60.824 201.544,60.824 201.544,26.807 194.2,26.807 
		194.2,21.515 214.583,21.515 214.583,26.807 207.239,26.807 	"/>
	<polygon fill="#00B0D8" points="235.087,46.677 235.087,60.823 229.392,60.823 229.392,46.326 
		217.351,21.516 223.694,21.516 232.334,40.414 240.946,21.516 247.264,21.516 	"/>
    </g>
<g fill="#000000">
	<path d="M177.831,66.435v13.913c0,3.889-3.307,6.971-7.38,6.971c-4.076,0-7.383-3.082-7.383-6.971
		c0-3.805,3.307-6.914,7.383-6.914c1.771,0,3.364,0.582,4.604,1.527v-8.526H177.831z M175.056,80.348v-0.027
		c0-2.389-2.066-4.305-4.604-4.305c-2.54,0-4.607,1.943-4.607,4.332c0,2.443,2.067,4.361,4.607,4.361
		C173.019,84.709,175.056,82.792,175.056,80.348"/>
	<path d="M194.458,80.405c0,3.775-3.277,6.887-7.411,6.887c-4.045,0-7.322-3.111-7.322-6.887
		c0-3.889,3.277-6.971,7.322-6.971c2.599,0,4.813,1.193,6.113,2.971l-8.238,7.775c0.649,0.307,1.357,0.5,2.125,0.5
		c2.599,0,4.636-1.916,4.636-4.275H194.458z M182.973,82.321l6.2-5.832c-0.59-0.277-1.328-0.473-2.126-0.473
		c-2.539,0-4.547,1.916-4.547,4.389C182.5,81.071,182.678,81.737,182.973,82.321"/>
	<path d="M194.461,87.346v-2.609c2.54,0,4.605-1.945,4.605-4.332c0-3.861,3.308-6.943,7.383-6.943v2.611
		c-2.54,0-4.606,1.943-4.606,4.332C201.843,84.237,198.536,87.346,194.461,87.346"/>
	<path d="M209.699,71.434c-1.033,0-1.89-0.805-1.89-1.777s0.856-1.776,1.89-1.776s1.89,0.804,1.89,1.776
		S210.732,71.434,209.699,71.434 M208.312,73.6h2.775v13.719h-2.775V73.6z"/>
	<path d="M228.893,87.069c-0.029,3.805-3.336,6.916-7.382,6.916v-2.611c2.54,0,4.577-1.916,4.605-4.305
		v-1.305c-1.269,0.943-2.863,1.555-4.605,1.555c-4.045,0-7.353-3.109-7.353-6.943c0-3.832,3.308-6.914,7.353-6.914
		c4.075,0,7.382,3.082,7.382,6.914V87.069z M221.511,76.043c-2.539,0-4.576,1.916-4.576,4.332s2.037,4.334,4.576,4.334
		c2.54,0,4.577-1.918,4.605-4.305v-0.029C226.116,77.959,224.051,76.043,221.511,76.043"/>
	<path d="M234.447,80.209v7.109h-2.775V73.516h2.775v1.445c1.24-0.945,2.864-1.527,4.606-1.527
		c4.074,0,7.381,3.109,7.381,6.941v6.943h-2.775v-6.943c0-2.387-2.065-4.332-4.605-4.332
		C236.573,76.043,234.536,77.905,234.447,80.209"/>
    </g>
<g fill="#808285">
	<polygon fill="#808285" points="0,100.403 0.544,100.403 1.088,100.403 1.088,111.249 0.544,111.249 
		0,111.249 	"/>
	<polygon fill="#808285" points="11.719,111.249 11.175,111.249 10.631,111.249 10.631,100.403 
		11.368,100.403 12.113,100.403 18.177,109.368 18.177,100.403 18.72,100.403 19.265,100.403 19.265,111.249 18.72,111.249 
		18.168,111.249 11.719,101.725 	"/>
	<polygon fill="#808285" points="30.282,101.383 27.798,101.383 27.798,100.897 27.798,100.403 
		33.854,100.403 33.854,100.889 33.854,101.383 31.37,101.383 31.37,111.249 30.826,111.249 30.282,111.249 	"/>
	<polygon fill="#808285" points="42.309,111.249 42.309,100.403 48.25,100.403 48.25,100.889 
		48.25,101.383 43.396,101.383 43.396,105.286 48.101,105.286 48.101,105.772 48.101,106.266 43.396,106.266 43.396,110.269 
		48.25,110.269 48.25,110.754 48.25,111.249 	"/>
	<path fill="#808285" d="M57.5,100.403h0.544h2.763c1.27,0,2.262,0.303,2.978,0.912
		c0.716,0.608,1.074,1.455,1.074,2.539c0,1.078-0.358,1.92-1.074,2.528c-0.553,0.462-1.271,0.75-2.155,0.864l3.1,4.002h-0.688
		h-0.688l-3.714-4.934h1.167c0.926,0,1.65-0.217,2.169-0.65c0.52-0.436,0.781-1.037,0.781-1.811c0-0.779-0.261-1.387-0.781-1.822
		c-0.519-0.438-1.243-0.654-2.169-0.654h-2.219v9.871h-0.544H57.5V100.403z"/>
	<polygon fill="#808285" points="74.896,111.249 74.352,111.249 73.808,111.249 73.808,100.403 
		74.544,100.403 75.29,100.403 81.353,109.368 81.353,100.403 81.896,100.403 82.44,100.403 82.44,111.249 81.896,111.249 
		81.346,111.249 74.896,101.725 	"/>
	<polygon fill="#808285" points="91.912,111.249 91.912,100.403 97.854,100.403 97.854,100.889 
		97.854,101.383 93,101.383 93,105.286 97.704,105.286 97.704,105.772 97.704,106.266 93,106.266 93,110.269 97.854,110.269 
		97.854,110.754 97.854,111.249 	"/>
	<polygon fill="#808285" points="108.649,101.383 106.166,101.383 106.166,100.897 106.166,100.403 
		112.221,100.403 112.221,100.889 112.221,101.383 109.737,101.383 109.737,111.249 109.192,111.249 108.649,111.249 	"/>
	<path fill="#808285" d="M132.131,100.403h0.543h2.563c1.819,0,3.283,0.488,4.392,1.467
		c1.11,0.979,1.665,2.27,1.665,3.873c0,1.652-0.549,2.982-1.643,3.992c-1.096,1.008-2.543,1.514-4.342,1.514h-2.635h-0.543V100.403z
		 M133.219,110.274h2.09c1.498,0,2.687-0.398,3.564-1.197c0.879-0.801,1.318-1.883,1.318-3.248c0-1.366-0.445-2.447-1.337-3.25
		c-0.889-0.801-2.095-1.201-3.618-1.201h-2.018V110.274z"/>
	<polygon fill="#808285" points="150.398,100.403 150.943,100.403 151.487,100.403 151.487,111.249 
		150.943,111.249 150.398,111.249 	"/>
	<polygon fill="#808285" points="160.951,111.249 160.951,100.403 166.894,100.403 166.894,100.889 
		166.894,101.383 162.039,101.383 162.039,105.286 166.743,105.286 166.743,105.772 166.743,106.266 162.039,106.266 
		162.039,110.269 166.894,110.269 166.894,110.754 166.894,111.249 	"/>
	<polygon fill="#808285" points="177.309,111.249 176.766,111.249 176.221,111.249 176.221,100.403 
		176.958,100.403 177.703,100.403 183.767,109.368 183.767,100.403 184.311,100.403 184.854,100.403 184.854,111.249 
		184.311,111.249 183.76,111.249 177.309,101.725 	"/>
	<path fill="#808285" d="M198.925,103.167c-0.068-0.607-0.277-1.088-0.631-1.443
		c-0.353-0.355-0.8-0.533-1.34-0.533c-0.554,0-1.022,0.178-1.404,0.531c-0.381,0.352-0.573,0.783-0.573,1.295
		c0,0.496,0.168,0.895,0.501,1.195c0.334,0.301,0.901,0.559,1.703,0.773c1.067,0.291,1.846,0.699,2.332,1.223
		c0.483,0.525,0.726,1.221,0.726,2.084c0,0.879-0.319,1.621-0.96,2.229c-0.639,0.608-1.422,0.913-2.348,0.913
		c-0.985,0-1.781-0.299-2.393-0.895s-0.917-1.371-0.917-2.326h1.074c0.081,0.734,0.311,1.293,0.691,1.676
		c0.38,0.381,0.894,0.572,1.544,0.572c0.63,0,1.163-0.205,1.598-0.613c0.433-0.408,0.65-0.904,0.65-1.492
		c0-0.611-0.189-1.098-0.569-1.461c-0.378-0.357-1.02-0.66-1.929-0.908c-0.966-0.264-1.668-0.625-2.107-1.088
		c-0.437-0.459-0.655-1.064-0.655-1.818c0-0.803,0.294-1.48,0.881-2.033c0.588-0.555,1.306-0.83,2.155-0.83
		c0.864,0,1.585,0.279,2.163,0.842c0.578,0.561,0.867,1.262,0.867,2.107H198.925z"/>
	<polygon fill="#808285" points="210.504,101.383 208.021,101.383 208.021,100.897 208.021,100.403 
		214.076,100.403 214.076,100.889 214.076,101.383 211.593,101.383 211.593,111.249 211.049,111.249 210.504,111.249 	"/>
	<polygon fill="#808285" points="222.531,111.249 222.531,100.403 228.474,100.403 228.474,100.889 
		228.474,101.383 223.619,101.383 223.619,105.286 228.322,105.286 228.322,105.772 228.322,106.266 223.619,106.266 
		223.619,110.269 228.474,110.269 228.474,110.754 228.474,111.249 	"/>
	<polygon fill="#808285" points="238.889,111.249 238.346,111.249 237.801,111.249 237.801,100.403 
		238.538,100.403 239.283,100.403 245.347,109.368 245.347,100.403 245.891,100.403 246.435,100.403 246.435,111.249 
		245.891,111.249 245.34,111.249 238.889,101.725 	"/>
</g>
</svg>
